<?xml version="1.0" encoding="UTF-8"?>
<svg id="Layer_1" data-name="Layer 1" xmlns="http://www.w3.org/2000/svg" xmlns:xlink="http://www.w3.org/1999/xlink" viewBox="0 0 434.58 360.06">
  <defs>
    <style>
      .cls-1 {
        fill: none;
      }

      .cls-1, .cls-2, .cls-3, .cls-4, .cls-5, .cls-6, .cls-7 {
        stroke-width: 0px;
      }

      .cls-2 {
        fill: url(#linear-gradient);
      }

      .cls-3 {
        fill: #770d29;
      }

      .cls-4 {
        fill: #7a1613;
      }

      .cls-5 {
        fill: #fff;
      }

      .cls-6 {
        fill: #ffeb88;
      }

      .cls-7 {
        fill: #004062;
      }
    </style>
    <linearGradient id="linear-gradient" x1="-71.43" y1="88.88" x2="267.25" y2="88.88" gradientUnits="userSpaceOnUse">
      <stop offset="0" stop-color="#fff"/>
      <stop offset="1" stop-color="#004062"/>
    </linearGradient>
  </defs>
  <path class="cls-3" d="m390.65,131.99C369.62,55.85,299.89-.09,217.05-.09S64.51,55.85,43.48,131.99H.17v97.05h43.58c21.35,75.65,90.83,131.11,173.3,131.11s151.97-55.46,173.32-131.11h44.04v-97.05h-43.77Zm36.93,90.44h-42.82c-.05.2-.1.4-.15.6-11.83,44.79-40.35,82.34-80.32,105.76-26.9,15.76-56.78,23.81-87.02,23.81-14.7,0-29.49-1.9-44.07-5.76-44.55-11.77-81.87-40.33-105.07-80.44-8.08-13.97-14.1-28.76-18.02-43.98H6.8v-83.82h42.74c.31-1.28.63-2.56.96-3.84,11.83-44.79,40.36-82.35,80.33-105.76C170.81,5.6,217.36-.82,261.92,10.96c44.56,11.77,81.87,40.33,105.07,80.44,8.65,14.96,14.95,30.85,18.83,47.21h41.77v83.82Z"/>
  <path class="cls-1" d="m280.26,59.41c-10.08-.97-20.31-2.75-31.28-5.44h0c-9.46-2.34-17.94-4.95-25.88-7.96-2.72,3.91-5.43,8.17-8.08,12.68,9.97,2.24,20.28,4.83,30.65,7.72,12.32,3.47,24.38,7.27,35.84,11.3-.03-1.4-.07-2.8-.12-4.19-.22-4.93-.6-9.68-1.13-14.12Z"/>
  <path class="cls-1" d="m131.94,97.66h0c6.72,3.72,14.01,7.33,22.28,11.03,8.77,3.95,18.05,7.75,27.58,11.32,5.87-16.12,12.42-31.33,19.46-45.21,2.18-4.3,4.55-8.67,7.05-12.99-13.82-2.5-27.35-4.38-40.23-5.6h0c-1.78-.17-3.67-.34-6.14-.54-11.27,11.94-21.37,26.06-30,41.98Z"/>
  <path class="cls-1" d="m198.14,33.59c-1.73-1.19-3.26-2.37-4.67-3.6-9.06,5.38-17.94,12.26-26.39,20.45.29.03.58.06.87.09l.99.1c13.37,1.6,27.04,3.93,41.77,7.11l.19-.31c.69-1.14,1.38-2.28,2.09-3.41,2.07-3.3,4.2-6.5,6.34-9.51-1.88-.76-3.45-1.42-4.93-2.07-6.74-3.06-11.75-5.79-16.25-8.85Z"/>
  <path class="cls-1" d="m120.45,122.28c5.81.53,12.11,1.24,19.24,2.18,12.28,1.72,24.77,3.92,38.19,6.72.66-1.93,1.32-3.86,1.98-5.78-9.75-3.33-19.13-6.88-27.88-10.54h0c-8.81-3.77-16.43-7.37-23.27-11-2.97,5.9-5.74,12.1-8.26,18.42Z"/>
  <path class="cls-1" d="m319.26,92.73c3,1.34,6.01,2.74,8.95,4.15l-.11-.42c-.21-.84-.44-1.7-.69-2.55-3.76-13.12-9.02-25.12-15.65-35.67-2.48.73-5.19,1.23-8.53,1.55-5.51.51-11.5.51-18.33.01-.67-.05-1.33-.11-1.99-.17h-.13c.57,5.89.88,12.24.9,18.85,12.46,4.44,24.42,9.24,35.56,14.25Z"/>
  <path class="cls-1" d="m225.6,337.04c15.81-5.8,31.52-16.08,45.45-29.72.3-.3.6-.6.9-.9.07-.07.13-.14.2-.21-3.11-.22-6.23-.47-9.28-.76-12.24-1.16-25.06-2.9-38.11-5.19-5.05,8.71-9.98,16.03-15.08,22.37-5.48,6.77-10.66,11.79-15.84,15.35-2.09,1.41-4.18,2.54-6.24,3.4,2.63.49,5.26.91,7.9,1.26,1.62,0,3.17-.04,4.67-.14,8.41-.5,16.97-2.34,25.44-5.45Z"/>
  <path class="cls-1" d="m154.34,308.66c-1.28-6.95-2.09-14.53-2.48-23.19-.03-.67-.05-1.33-.07-2.01,0-.36-.02-.72-.03-1.08-14.25-4.47-27.23-9.18-39.68-14.4-.28-.12-.56-.24-.84-.37-.23-.1-.46-.2-.69-.3,5.23,17.4,12.8,32.28,22.51,44.23,5.66,6.98,12.03,12.91,18.92,17.62h0c2.08,1.43,4.3,2.78,6.62,4.04,2,.76,4.01,1.49,6.05,2.18-1.32-1.66-2.54-3.54-3.63-5.62-2.9-5.59-5.08-12.49-6.68-21.11Z"/>
  <path class="cls-1" d="m183.98,339.03c2.66-.66,5.49-1.97,8.42-3.88,4.96-3.23,9.98-7.93,15.36-14.37,4.38-5.24,8.7-11.29,13.2-18.49.4-.64.79-1.28,1.18-1.93l.32-.53c-11.84-2.15-24.03-4.76-36.23-7.77-10.37-2.6-20.56-5.42-30.31-8.38.16,8.57.79,16.18,1.9,23.26,1.32,8.22,3.22,14.81,5.79,20.13,1.84,3.83,4.89,8.51,9.44,10.9.77.22,1.54.44,2.31.64,1.28.34,2.56.66,3.84.96,1.56.05,3.17-.13,4.78-.56Z"/>
  <path class="cls-1" d="m129.97,315c-11.23-13.22-20.11-30.38-25.69-49.63-.05-.2-.11-.39-.16-.58l-.1-.36c-10.39-4.72-19.22-9.38-27.01-14.25-4.5-2.87-8.18-5.48-11.44-8.14,2.82,6.86,6.12,13.58,9.89,20.1,15.34,26.52,37.17,47.72,63.29,61.95-3.08-2.8-6.03-5.83-8.8-9.09Z"/>
  <path class="cls-1" d="m301.75,306.6c-8.4.43-17.21.36-26.93-.22-.26.27-.52.54-.77.81-.43.45-.86.91-1.31,1.35-14.39,14.39-29.8,24.83-45.8,31.03h0c-4.87,1.89-9.84,3.36-14.81,4.43,30.49.96,60.76-6.69,87.85-22.56,9.63-5.64,18.55-12.14,26.69-19.4-1.68.69-3.54,1.31-5.61,1.86-5.5,1.41-11.45,2.24-19.32,2.69Z"/>
  <path class="cls-1" d="m359.8,232.73c-6.31,1.13-13.1,1.68-22.02,1.78-5.8.03-11.72-.11-18.12-.46-3.52,9.2-7.56,18.11-12.03,26.5,2.05,1.23,3.82,2.32,5.42,3.33,6.61,4.27,11.38,7.94,15.46,11.87,2.76,2.7,4.73,5.12,6.19,7.62,1.32,2.23,2.7,5.52,2.07,8.9,17.31-18.3,30.24-40.41,37.79-65.02-1.12.86-2.43,1.63-4.08,2.38-3.72,1.66-7.65,2.53-10.66,3.1Z"/>
  <path class="cls-1" d="m281.61,50.29c.37,2.32.7,4.81,1.02,7.83l.2.02c.62.08,1.23.15,1.85.21,7.27.67,12.85.78,18.1.36,3.28-.29,5.95-.74,8.36-1.43-2.65-4.15-5.53-8.07-8.56-11.65-5.85-6.9-12.39-12.72-19.43-17.3-1.96-1.27-3.99-2.47-6.22-3.65-1.77-.69-3.62-1.36-5.59-2.05,1.51,1.87,2.88,4.05,4.08,6.49,2.75,5.63,4.78,12.55,6.2,21.16Z"/>
  <path class="cls-1" d="m228.79,38.33c-1.13,1.42-2.32,2.97-3.61,4.74,7.55,3.1,15.68,5.89,24.19,8.3,11.03,3.1,21.07,5.21,30.7,6.45-.31-2.49-.65-4.74-1.04-6.88-1.5-8.22-3.55-14.79-6.26-20.08-2.3-4.49-6.34-10.15-12.54-11.61-2.55-.62-5.39-.51-8.19.32-2.62.75-5.41,2.13-8.28,4.1-4.86,3.36-9.76,8.15-14.97,14.65Z"/>
  <path class="cls-1" d="m305.68,260.74l.19-.37c-8.08-4.65-17.18-9.11-28.6-14.02-7.44-3.13-15.32-6.14-24.08-9.21l-.14.39c-.1.28-.2.56-.3.84-5.98,16.59-12.07,31.09-18.61,44.3-2.57,5.17-5.18,10.12-7.76,14.73,12.7,2.59,24.43,4.5,35.86,5.86,3.67.42,7.48.79,11.66,1.14,11.96-12.31,22.47-26.65,31.24-42.64.18-.34.36-.69.54-1.03Z"/>
  <path class="cls-1" d="m305,44.08c3.07,3.76,5.99,7.9,8.69,12.32.91-.38,1.66-.77,2.33-1.21,1.09-.71,2.49-1.92,2.97-3.7.23-.88.2-1.82-.08-2.89-7.92-6.21-16.44-11.7-25.34-16.35,4.08,3.56,7.91,7.53,11.42,11.84Z"/>
  <path class="cls-1" d="m256.95,226.27c-.98,2.94-2.01,5.92-3.15,9.12,8.91,3.41,17.04,6.78,24.84,10.29,10.39,4.66,19.41,9.26,27.57,14.05,4.4-8.24,8.37-16.91,11.8-25.77-7.8-.47-15.97-1.21-24.28-2.2-11.85-1.4-24.23-3.25-36.78-5.49Z"/>
  <path class="cls-1" d="m306.95,261.85l-.26.51c-8.69,15.98-18.83,30.19-30.17,42.25,8.91.64,16.85.79,24.25.46,7.8-.4,13.7-1.18,19.11-2.54,3.71-.97,6.57-2.07,8.99-3.45,2.3-1.3,5.23-3.58,6.15-7.01.9-3.44-.54-6.87-1.89-9.14-1.42-2.4-3.36-4.77-6.11-7.43-4.01-3.84-8.89-7.54-15.36-11.64-1.37-.87-2.74-1.69-4.36-2.64-.12.22-.23.44-.34.66Z"/>
  <path class="cls-7" d="m179.2,339.59c1.56.05,3.17-.13,4.78-.56,2.66-.66,5.49-1.97,8.42-3.88,4.96-3.23,9.98-7.93,15.36-14.37,4.38-5.24,8.7-11.29,13.2-18.49.4-.64.79-1.28,1.18-1.93l.32-.53c-11.84-2.15-24.03-4.76-36.23-7.77-10.37-2.6-20.56-5.42-30.31-8.38.16,8.57.79,16.18,1.9,23.26,1.32,8.22,3.22,14.81,5.79,20.13,1.84,3.83,4.89,8.51,9.44,10.9.77.22,1.54.44,2.31.64,1.28.34,2.56.66,3.84.96Z"/>
  <path class="cls-7" d="m299.98,321.45c9.63-5.64,18.55-12.14,26.69-19.4-1.68.69-3.54,1.31-5.61,1.86-5.5,1.41-11.45,2.24-19.32,2.69-8.4.43-17.21.36-26.93-.22-.26.27-.52.54-.77.81-.43.45-.86.91-1.31,1.35-14.39,14.39-29.8,24.83-45.8,31.03h0c-4.87,1.89-9.84,3.36-14.81,4.43,30.49.96,60.76-6.69,87.85-22.56Z"/>
  <path class="cls-7" d="m58.33,138.49s-.02.08-.03.11h.03s0-.08,0-.11Z"/>
  <path class="cls-7" d="m138.77,324.09c-3.08-2.8-6.03-5.83-8.8-9.09-11.23-13.22-20.11-30.38-25.69-49.63-.05-.2-.11-.39-.16-.58l-.1-.36c-10.39-4.72-19.22-9.38-27.01-14.25-4.5-2.87-8.18-5.48-11.44-8.14,2.82,6.86,6.12,13.58,9.89,20.1,15.34,26.52,37.17,47.72,63.29,61.95Z"/>
  <path class="cls-7" d="m370.46,229.64c-3.72,1.66-7.65,2.53-10.66,3.1-6.31,1.13-13.1,1.68-22.02,1.78-5.8.03-11.72-.11-18.12-.46-3.52,9.2-7.56,18.11-12.03,26.5,2.05,1.23,3.82,2.32,5.42,3.33,6.61,4.27,11.38,7.94,15.46,11.87,2.76,2.7,4.73,5.12,6.19,7.62,1.32,2.23,2.7,5.52,2.07,8.9,17.31-18.3,30.24-40.41,37.79-65.02-1.12.86-2.43,1.63-4.08,2.38Z"/>
  <path class="cls-7" d="m60.22,225.78c1.26,2.15,3.08,4.37,5.56,6.81,3.79,3.68,8.5,7.29,14.82,11.37,6.34,4.07,13.31,8,21.29,11.98-2.48-10.79-4.03-22.02-4.66-33.52h-38.32c.16.6.35,1.19.52,1.79.23.51.49,1.04.8,1.57Z"/>
  <path class="cls-7" d="m161.02,329.77c-2.9-5.59-5.08-12.49-6.68-21.11-1.28-6.95-2.09-14.53-2.48-23.19-.03-.67-.05-1.33-.07-2.01,0-.36-.02-.72-.03-1.08-14.25-4.47-27.23-9.18-39.68-14.4-.28-.12-.56-.24-.84-.37-.23-.1-.46-.2-.69-.3,5.23,17.4,12.8,32.28,22.51,44.23,5.66,6.98,12.03,12.91,18.92,17.62h0c2.08,1.43,4.3,2.78,6.62,4.04,2,.76,4.01,1.49,6.05,2.18-1.32-1.66-2.54-3.54-3.63-5.62Z"/>
  <path class="cls-7" d="m200.15,342.49c8.41-.5,16.97-2.34,25.44-5.45,15.81-5.8,31.52-16.08,45.45-29.72.3-.3.6-.6.9-.9.07-.07.13-.14.2-.21-3.11-.22-6.23-.47-9.28-.76-12.24-1.16-25.06-2.9-38.11-5.19-5.05,8.71-9.98,16.03-15.08,22.37-5.48,6.77-10.66,11.79-15.84,15.35-2.09,1.41-4.18,2.54-6.24,3.4,2.63.49,5.26.91,7.9,1.26,1.62,0,3.17-.04,4.67-.14Z"/>
  <path class="cls-7" d="m323.77,222.42c-1.11,3.38-2.28,6.76-3.54,10.13,5.87.38,11.29.57,16.57.57,8.91-.07,15.64-.59,21.84-1.68,4.37-.79,7.6-1.72,10.5-2.99,1.95-.88,3.42-1.77,4.65-2.83.74-.64,1.35-1.33,1.84-2.05.11-.38.22-.76.33-1.14h-52.18Z"/>
  <path class="cls-6" d="m383.81,222.42h-7.86c-.1.38-.22.76-.33,1.14-.35,1.24-.71,2.47-1.08,3.69-7.54,24.6-20.47,46.72-37.79,65.02-3.21,3.39-6.57,6.66-10.07,9.78-8.15,7.26-17.07,13.76-26.69,19.4-27.09,15.87-57.36,23.52-87.85,22.56-5.55-.18-11.1-.63-16.64-1.38-2.64-.36-5.27-.78-7.9-1.26-2.8-.52-5.6-1.11-8.39-1.78-1.28-.31-2.56-.63-3.84-.96-.77-.2-1.54-.43-2.31-.64-2.83-.79-5.64-1.65-8.4-2.59-2.04-.69-4.05-1.41-6.05-2.18-6.84-2.61-13.46-5.66-19.83-9.13-26.12-14.22-47.95-35.43-63.29-61.95-3.78-6.53-7.07-13.25-9.89-20.1-2.41-5.85-4.46-11.8-6.17-17.83-.17-.6-.36-1.19-.52-1.79h-8.8c3.92,15.22,9.94,30.01,18.02,43.98,23.2,40.1,60.51,68.67,105.07,80.44,14.58,3.85,29.36,5.76,44.07,5.76,30.24,0,60.12-8.06,87.02-23.81,39.97-23.41,68.5-60.97,80.32-105.76.05-.2.1-.4.15-.6h-.95Z"/>
  <path class="cls-7" d="m319.26,92.73c3,1.34,6.01,2.74,8.95,4.15l-.11-.42c-.21-.84-.44-1.7-.69-2.55-3.76-13.12-9.02-25.12-15.65-35.67-2.48.73-5.19,1.23-8.53,1.55-5.51.51-11.5.51-18.33.01-.67-.05-1.33-.11-1.99-.17h-.13c.57,5.89.88,12.24.9,18.85,12.46,4.44,24.42,9.24,35.56,14.25Z"/>
  <path class="cls-2" d="m319.98,51.95c-.51,1.96-2.01,3.29-3.18,4.07-.72.49-1.55.93-2.53,1.34,6.39,10.67,11.51,22.89,15.22,36.33.32,1.17.61,2.34.9,3.51l.21.86c8.65,4.26,16.24,8.48,23.19,12.91,6.69,4.31,11.49,7.98,15.55,11.9,1.94,1.9,3.47,3.65,4.73,5.37-3.6-11.23-8.41-22.15-14.46-32.59-8.59-14.85-19.22-28.02-31.49-39.25-.93-.84-1.86-1.69-2.81-2.51-.26-.23-.53-.46-.79-.69-1.38-1.19-2.79-2.35-4.22-3.5-.08-.06-.15-.12-.23-.18.13.88.09,1.68-.11,2.43Z"/>
  <path class="cls-7" d="m212.75,62.64c-2.59,4.63-5.14,9.49-7.79,14.84-6.4,12.97-12.4,27.3-18.35,43.81-.04.11-.08.22-.12.33-.01.03-.02.07-.04.1,12.98,4.72,26.6,9.1,40.47,13,4.99,1.39,9.86,2.68,14.65,3.89h35.37c2.22-14.38,3.67-28.35,4.32-41.63.28-5.54.38-11.22.3-16.88-11.76-3.78-24-7.24-37.41-10.6-10.43-2.57-20.99-4.88-31.4-6.86Z"/>
  <path class="cls-7" d="m305,44.08c3.07,3.76,5.99,7.9,8.69,12.32.91-.38,1.66-.77,2.33-1.21,1.09-.71,2.49-1.92,2.97-3.7.23-.88.2-1.82-.08-2.89-6.78-5.32-14-10.1-21.52-14.29-.25-.14-.5-.28-.75-.42-.55-.3-1.11-.6-1.66-.89-.46-.24-.91-.49-1.37-.73,4.07,3.55,7.89,7.52,11.39,11.82Z"/>
  <path class="cls-7" d="m255.51,226.01c-6.11-1.1-12.29-2.3-18.52-3.59h-21.4c12.83,3.85,25.18,8.02,36.84,12.44,1.03-2.86,2.04-5.76,3.08-8.85Z"/>
  <path class="cls-7" d="m180.76,138.61h11.02c-3.49-.71-6.95-1.38-10.37-2.03-.22.67-.43,1.35-.64,2.03Z"/>
  <path class="cls-7" d="m224.84,138.61c-14.26-3.61-27.44-7.41-40.21-11.63l-.3.86c-.51,1.45-1.02,2.91-1.51,4.37,8.86,1.92,17.8,4.03,27.04,6.4h14.99Z"/>
  <path class="cls-7" d="m190.8,20.87c.55,1.1,1.37,2.23,2.49,3.45h0s.05.05.07.08c5.01-2.7,10.11-5.01,15.17-6.86,4.34-1.58,8.74-2.83,13.11-3.77-1.26-.03-2.52-.06-3.78-.06-9,0-17.96.75-26.82,2.24-.43.49-.72,1-.85,1.5-.26.93-.04,2.17.6,3.42Z"/>
  <path class="cls-7" d="m95.34,121.05c5.83,0,11.95.22,18.73.71,2.81-7.15,5.95-14.15,9.34-20.82-2.43-1.37-4.6-2.66-6.64-3.93-4.62-2.93-10.63-6.97-16.09-12.17-2.06-1.99-4.69-4.72-6.8-8.24-.8-1.35-1.41-2.66-1.85-3.99-13.1,15.55-23.24,33.49-29.91,53.11,3.86-1.6,7.71-2.42,10.68-2.96,8.3-1.45,16.41-1.67,22.55-1.7Z"/>
  <path class="cls-7" d="m108.12,138.61c1.14-3.65,2.38-7.28,3.69-10.89-4.94-.24-9.8-.37-14.48-.37-.67,0-1.34,0-2.01,0-8.58.1-15.36.65-21.32,1.74-3.99.74-7.18,1.67-9.77,2.84-2.45,1.07-4.32,2.5-5.22,3.97-.09.34-.19.69-.29,1.03-.14.52-.26,1.03-.39,1.55,0,.04,0,.08,0,.11h49.79Z"/>
  <path class="cls-7" d="m234.68,16.12c-8.32.69-16.78,2.7-25.15,5.98-4.1,1.6-8.25,3.54-12.34,5.78.9.72,1.88,1.45,2.9,2.17,4.41,3.06,9.51,5.95,15.6,8.83,1.77.84,3.69,1.71,5.85,2.65,1.81-2.45,3.47-4.55,5.05-6.44,5.66-6.71,10.97-11.63,16.24-15.05,2.13-1.38,4.27-2.47,6.38-3.28-1.5-.29-3.01-.56-4.51-.81-3.39-.15-6.75-.1-10.02.18Z"/>
  <path class="cls-7" d="m252.05,19.57c-2.62.75-5.41,2.13-8.28,4.1-4.86,3.36-9.76,8.15-14.97,14.65-1.13,1.42-2.32,2.97-3.61,4.74,7.55,3.1,15.68,5.89,24.19,8.3,11.03,3.1,21.07,5.21,30.7,6.45-.31-2.49-.65-4.74-1.04-6.88-1.5-8.22-3.55-14.79-6.26-20.08-2.1-4.09-5.64-9.14-10.94-11.11-.7-.19-1.39-.39-2.09-.58h0c-.14-.04-.27-.07-.41-.1-2.31-.4-4.81-.23-7.29.5Z"/>
  <path class="cls-7" d="m99.86,72.57c1.24,2.12,3.06,4.35,5.58,6.82,3.84,3.7,8.57,7.33,14.89,11.39,1.97,1.26,4.06,2.53,6.38,3.9.04-.07.07-.14.1-.21,7.96-14.48,17.37-27.69,27.98-39.27-9.05-.51-17.24-.56-25.02-.16-7.49.41-13.39,1.22-18.57,2.55-3.34.88-5.99,1.89-8.1,3.11-1.57,1.53-3.11,3.09-4.61,4.68-.05.15-.11.3-.15.46-.52,1.81.02,4.19,1.52,6.72Z"/>
  <path class="cls-7" d="m256.7,222.42h-4.75c1.49.32,2.97.63,4.45.94.1-.31.2-.63.3-.94Z"/>
  <path class="cls-7" d="m160.01,49.74c.22-.22.44-.45.65-.67.34-.35.68-.7,1.02-1.04,8.85-8.64,18.33-15.92,28.17-21.65-.91-1.09-1.6-2.11-2.16-3.21-.49-.98-.82-1.92-1-2.87-.22-1.18-.18-2.43.1-3.53,0-.01,0-.02.01-.03-17.94,3.51-35.38,10.07-51.68,19.62-7.15,4.19-13.91,8.85-20.26,13.95,4.27-.75,8.97-1.24,14.63-1.52,9.21-.39,18.9-.09,30.51.96Z"/>
  <path class="cls-7" d="m281.61,50.29c.37,2.32.7,4.81,1.02,7.83l.2.02c.62.08,1.23.15,1.85.21,7.27.67,12.85.78,18.1.36,3.28-.29,5.95-.74,8.36-1.43-2.65-4.15-5.53-8.07-8.56-11.65-5.85-6.9-12.39-12.72-19.43-17.3-1.85-1.21-3.78-2.34-5.88-3.46-1.94-.75-3.9-1.48-5.88-2.16,1.49,1.85,2.84,4.01,4.03,6.42,2.75,5.63,4.78,12.55,6.2,21.16Z"/>
  <path class="cls-7" d="m256.95,226.27c-.98,2.94-2.01,5.92-3.15,9.12,8.91,3.41,17.04,6.78,24.84,10.29,10.39,4.66,19.41,9.26,27.57,14.05,4.4-8.24,8.37-16.91,11.8-25.77-7.8-.47-15.97-1.21-24.28-2.2-11.85-1.4-24.23-3.25-36.78-5.49Z"/>
  <path class="cls-7" d="m306.95,261.85l-.26.51c-8.69,15.98-18.83,30.19-30.17,42.25,8.91.64,16.85.79,24.25.46,7.8-.4,13.7-1.18,19.11-2.54,3.71-.97,6.57-2.07,8.99-3.45,2.3-1.3,5.23-3.58,6.15-7.01.9-3.44-.54-6.87-1.89-9.14-1.42-2.4-3.36-4.77-6.11-7.43-4.01-3.84-8.89-7.54-15.36-11.64-1.37-.87-2.74-1.69-4.36-2.64-.12.22-.23.44-.34.66Z"/>
  <path class="cls-7" d="m251.8,236.65c-14.89-5.16-30.55-9.78-47.85-14.1-.18-.04-.35-.08-.53-.13h-42.69c-2.17,13.85-3.59,26.59-4.3,38.71-.35,6.08-.54,11.66-.56,17.04,10.07,3.44,20.45,6.67,30.86,9.61,12.84,3.58,25.45,6.68,37.46,9.19,2.95-5,5.72-10.08,8.23-15.1,6.98-13.82,13.5-29.03,19.37-45.22Z"/>
  <path class="cls-7" d="m257.8,223.65c12.41,2.54,23.95,4.54,35.29,6.12,9.73,1.28,17.85,2.13,25.51,2.67,1.27-3.34,2.44-6.68,3.55-10.02h-63.96c-.13.41-.26.82-.39,1.23Z"/>
  <path class="cls-7" d="m305.68,260.74l.19-.37c-8.08-4.65-17.18-9.11-28.6-14.02-7.44-3.13-15.32-6.14-24.08-9.21l-.14.39c-.1.28-.2.56-.3.84-5.98,16.59-12.07,31.09-18.61,44.3-2.57,5.17-5.18,10.12-7.76,14.73,12.7,2.59,24.43,4.5,35.86,5.86,3.67.42,7.48.79,11.66,1.14,11.96-12.31,22.47-26.65,31.24-42.64.18-.34.36-.69.54-1.03Z"/>
  <path class="cls-7" d="m317.77,93.38c-10.76-4.51-21.92-8.63-34.09-12.59-.02,4.98-.19,10.32-.51,16.32-.74,12.94-2.27,26.58-4.67,41.5h55.89c-.57-13.99-2.52-27.54-5.86-40.42-3.38-1.58-6.9-3.15-10.76-4.81Z"/>
  <path class="cls-7" d="m367.75,122.56c-4.07-3.88-8.83-7.48-15.43-11.67-6.37-3.98-13.38-7.78-21.4-11.59,2.99,12.42,4.71,25.6,5.17,39.31h39.81c.62-3.26-.71-6.45-2-8.61-1.44-2.41-3.39-4.78-6.15-7.44Z"/>
  <path class="cls-7" d="m168.94,50.64c13.37,1.6,27.04,3.93,41.77,7.11l.19-.31c.69-1.14,1.38-2.28,2.09-3.41,2.07-3.3,4.2-6.5,6.34-9.51-1.88-.76-3.45-1.42-4.93-2.07-6.74-3.06-11.75-5.79-16.25-8.85-1.73-1.19-3.26-2.37-4.67-3.6-9.06,5.38-17.94,12.26-26.39,20.45.29.03.58.06.87.09l.99.1Z"/>
  <path class="cls-7" d="m181.8,120.02c5.87-16.12,12.42-31.33,19.46-45.21,2.18-4.3,4.55-8.67,7.05-12.99-13.82-2.5-27.35-4.38-40.23-5.6h0c-1.78-.17-3.67-.34-6.14-.54-11.27,11.94-21.37,26.06-30,41.98h0c6.72,3.72,14.01,7.33,22.28,11.03,8.77,3.95,18.05,7.75,27.58,11.32Z"/>
  <path class="cls-7" d="m177.88,131.18c.66-1.93,1.32-3.86,1.98-5.78-9.75-3.33-19.13-6.88-27.88-10.54h0c-8.81-3.77-16.43-7.37-23.27-11-2.97,5.9-5.74,12.1-8.26,18.42,5.81.53,12.11,1.24,19.24,2.18,12.28,1.72,24.77,3.92,38.19,6.72Z"/>
  <path class="cls-7" d="m245.67,66.41c12.32,3.47,24.38,7.27,35.84,11.3-.03-1.4-.07-2.8-.12-4.19-.22-4.93-.6-9.68-1.13-14.12-10.08-.97-20.31-2.75-31.28-5.44h0c-9.46-2.34-17.94-4.95-25.88-7.96-2.72,3.91-5.43,8.17-8.08,12.68,9.97,2.24,20.28,4.83,30.65,7.72Z"/>
  <path class="cls-7" d="m108.32,259.06c1.85.88,3.82,1.79,6.01,2.78,11.79,5.3,24.34,10.3,37.31,14.87-.05-5.12.05-10.19.28-15.08.6-12.6,1.91-25.75,3.88-39.21h-52.67c.61,12.76,2.34,25.03,5.2,36.64Z"/>
  <path class="cls-7" d="m176.39,135.67c-13.21-2.37-25.53-4.21-37.66-5.63-7.04-.84-13.94-1.49-20.5-1.94-1.29,3.49-2.48,7-3.6,10.5h60.83c.31-.98.62-1.97.94-2.93Z"/>
  <path class="cls-5" d="m294.99,32.99c.56.3,1.11.59,1.66.89-.55-.3-1.11-.6-1.66-.89Z"/>
  <path class="cls-5" d="m313.77,44.71s-.02-.02-.04-.03c.01,0,.02.02.04.03Z"/>
  <path class="cls-6" d="m320.09,49.51s0,0,0,0c.08.06.15.12.23.18-.08-.06-.15-.13-.23-.19Z"/>
  <path class="cls-6" d="m293.58,32.23s.02.02.03.03c.46.24.92.48,1.37.73-.47-.25-.93-.51-1.4-.75Z"/>
  <path class="cls-6" d="m296.65,33.88c.25.14.5.28.75.42-.25-.14-.5-.28-.75-.42Z"/>
  <g>
    <path class="cls-1" d="m259.75,19.17c-.14-.04-.27-.07-.41-.1-2.31-.4-4.81-.23-7.29.5-2.62.75-5.41,2.13-8.28,4.1-4.86,3.36-9.76,8.15-14.97,14.65-1.13,1.42-2.32,2.97-3.61,4.74,7.55,3.1,15.68,5.89,24.19,8.3,11.03,3.1,21.07,5.21,30.7,6.45-.31-2.49-.65-4.74-1.04-6.88-1.5-8.22-3.55-14.79-6.26-20.08-2.1-4.09-5.64-9.14-10.94-11.11-.7-.19-1.39-.39-2.09-.58h0Z"/>
    <path class="cls-1" d="m255.51,226.01c-6.11-1.1-12.29-2.3-18.52-3.59h-21.4c12.83,3.85,25.18,8.02,36.84,12.44,1.03-2.86,2.04-5.76,3.08-8.85Z"/>
    <path class="cls-1" d="m319.26,92.73c3,1.34,6.01,2.74,8.95,4.15l-.11-.42c-.21-.84-.44-1.7-.69-2.55-3.76-13.12-9.02-25.12-15.65-35.67-2.48.73-5.19,1.23-8.53,1.55-5.51.51-11.5.51-18.33.01-.67-.05-1.33-.11-1.99-.17h-.13c.57,5.89.88,12.24.9,18.85,12.46,4.44,24.42,9.24,35.56,14.25Z"/>
    <path class="cls-1" d="m212.75,62.64c-2.59,4.63-5.14,9.49-7.79,14.84-6.4,12.97-12.4,27.3-18.35,43.81-.04.11-.08.22-.12.33-.01.03-.02.07-.04.1,12.98,4.72,26.6,9.1,40.47,13,4.99,1.39,9.86,2.68,14.65,3.89h35.37c2.22-14.38,3.67-28.35,4.32-41.63.28-5.54.38-11.22.3-16.88-11.76-3.78-24-7.24-37.41-10.6-10.43-2.57-20.99-4.88-31.4-6.86Z"/>
    <path class="cls-1" d="m180.76,138.61h11.02c-3.49-.71-6.95-1.38-10.37-2.03-.22.67-.43,1.35-.64,2.03Z"/>
    <path class="cls-1" d="m224.84,138.61c-14.26-3.61-27.44-7.41-40.21-11.63l-.3.86c-.51,1.45-1.02,2.91-1.51,4.37,8.86,1.92,17.8,4.03,27.04,6.4h14.99Z"/>
    <path class="cls-1" d="m296.65,33.88c-.55-.3-1.11-.6-1.66-.89-.47-.25-.93-.51-1.4-.75,0,0,.02.02.03.03,4.07,3.55,7.89,7.52,11.39,11.82,3.07,3.76,5.99,7.9,8.69,12.32.91-.38,1.66-.77,2.33-1.21,1.09-.71,2.49-1.92,2.97-3.7.23-.87.2-1.82-.07-2.87h0c-6.78-5.33-13.97-10.11-21.53-14.3-.25-.14-.5-.28-.75-.42Z"/>
    <path class="cls-1" d="m234.68,16.12c-8.32.69-16.78,2.7-25.15,5.98-4.1,1.6-8.25,3.54-12.34,5.78.9.72,1.88,1.45,2.9,2.17,4.41,3.06,9.51,5.95,15.6,8.83,1.77.84,3.69,1.71,5.85,2.65,1.81-2.45,3.47-4.55,5.05-6.44,5.66-6.71,10.97-11.63,16.24-15.05,2.13-1.38,4.27-2.47,6.38-3.28-1.5-.29-3.01-.56-4.51-.81-3.39-.15-6.75-.1-10.02.18Z"/>
    <path class="cls-1" d="m275.41,29.12c2.75,5.63,4.78,12.55,6.2,21.16.37,2.32.7,4.81,1.02,7.83l.2.02c.62.08,1.23.15,1.85.21,7.27.67,12.85.78,18.1.36,3.28-.29,5.95-.74,8.36-1.43-2.65-4.15-5.53-8.07-8.56-11.65-5.85-6.9-12.39-12.72-19.43-17.3-1.85-1.21-3.78-2.34-5.88-3.46-1.94-.75-3.9-1.48-5.88-2.16,1.49,1.85,2.84,4.01,4.03,6.42Z"/>
    <path class="cls-1" d="m72.79,122.75c8.3-1.45,16.41-1.67,22.55-1.7,5.83,0,11.95.22,18.73.71,2.81-7.15,5.95-14.15,9.34-20.82-2.43-1.37-4.6-2.66-6.64-3.93-4.62-2.93-10.63-6.97-16.09-12.17-2.06-1.99-4.69-4.72-6.8-8.24-.8-1.35-1.41-2.66-1.85-3.99-13.1,15.55-23.24,33.49-29.91,53.11,3.86-1.6,7.71-2.42,10.68-2.96Z"/>
    <path class="cls-1" d="m98.48,65.39c-.05.15-.11.3-.15.46-.52,1.81.02,4.19,1.52,6.72,1.24,2.12,3.06,4.35,5.58,6.82,3.84,3.7,8.57,7.33,14.89,11.39,1.97,1.26,4.06,2.53,6.38,3.9.04-.07.07-.14.1-.21,7.96-14.48,17.37-27.69,27.98-39.27-9.05-.51-17.24-.56-25.02-.16-7.49.41-13.39,1.22-18.57,2.55-3.34.88-5.99,1.89-8.1,3.11-1.57,1.53-3.11,3.09-4.61,4.68Z"/>
    <path class="cls-1" d="m114.87,50.3c4.27-.75,8.97-1.24,14.63-1.52,9.21-.39,18.9-.09,30.51.96.22-.22.44-.45.65-.67.34-.35.68-.7,1.02-1.04,8.85-8.64,18.33-15.92,28.17-21.65-.91-1.09-1.6-2.11-2.16-3.21-.49-.98-.82-1.92-1-2.87-.22-1.18-.18-2.43.1-3.53,0-.01,0-.02.01-.03-17.94,3.51-35.38,10.07-51.68,19.62-7.15,4.19-13.91,8.85-20.26,13.95Z"/>
    <path class="cls-1" d="m58.33,138.49s-.02.08-.03.11h49.82c1.14-3.65,2.38-7.28,3.69-10.89-4.94-.24-9.8-.37-14.48-.37-.67,0-1.34,0-2.01,0-8.58.1-15.36.65-21.32,1.74-3.99.74-7.18,1.67-9.77,2.84-2.45,1.07-4.32,2.5-5.22,3.97-.09.34-.19.69-.29,1.03-.14.52-.26,1.03-.39,1.55Z"/>
    <path class="cls-1" d="m191.05,15.95c-.43.49-.72,1-.85,1.5-.26.93-.04,2.17.6,3.42.55,1.1,1.37,2.23,2.49,3.45h0s.05.05.07.08c5.01-2.7,10.11-5.01,15.17-6.86,4.34-1.58,8.74-2.83,13.11-3.77-1.26-.03-2.52-.06-3.78-.06-9,0-17.96.75-26.82,2.24Z"/>
    <path class="cls-1" d="m306.95,261.85l-.26.51c-8.69,15.98-18.83,30.19-30.17,42.25,8.91.64,16.85.79,24.25.46,7.8-.4,13.7-1.18,19.11-2.54,3.71-.97,6.57-2.07,8.99-3.45,2.3-1.3,5.23-3.58,6.15-7.01.9-3.44-.54-6.87-1.89-9.14-1.42-2.4-3.36-4.77-6.11-7.43-4.01-3.84-8.89-7.54-15.36-11.64-1.37-.87-2.74-1.69-4.36-2.64-.12.22-.23.44-.34.66Z"/>
    <path class="cls-1" d="m108.32,259.06c1.85.88,3.82,1.79,6.01,2.78,11.79,5.3,24.34,10.3,37.31,14.87-.05-5.12.05-10.19.28-15.08.6-12.6,1.91-25.75,3.88-39.21h-52.67c.61,12.76,2.34,25.03,5.2,36.64Z"/>
    <path class="cls-1" d="m305.68,260.74l.19-.37c-8.08-4.65-17.18-9.11-28.6-14.02-7.44-3.13-15.32-6.14-24.08-9.21l-.14.39c-.1.28-.2.56-.3.84-5.98,16.59-12.07,31.09-18.61,44.3-2.57,5.17-5.18,10.12-7.76,14.73,12.7,2.59,24.43,4.5,35.86,5.86,3.67.42,7.48.79,11.66,1.14,11.96-12.31,22.47-26.65,31.24-42.64.18-.34.36-.69.54-1.03Z"/>
    <path class="cls-1" d="m257.8,223.65c12.41,2.54,23.95,4.54,35.29,6.12,9.73,1.28,17.85,2.13,25.51,2.67,1.27-3.34,2.44-6.68,3.55-10.02h-63.96c-.13.41-.26.82-.39,1.23Z"/>
    <path class="cls-1" d="m251.8,236.65c-14.89-5.16-30.55-9.78-47.85-14.1-.18-.04-.35-.08-.53-.13h-42.69c-2.17,13.85-3.59,26.59-4.3,38.71-.35,6.08-.54,11.66-.56,17.04,10.07,3.44,20.45,6.67,30.86,9.61,12.84,3.58,25.45,6.68,37.46,9.19,2.95-5,5.72-10.08,8.23-15.1,6.98-13.82,13.5-29.03,19.37-45.22Z"/>
    <path class="cls-1" d="m256.95,226.27c-.98,2.94-2.01,5.92-3.15,9.12,8.91,3.41,17.04,6.78,24.84,10.29,10.39,4.66,19.41,9.26,27.57,14.05,4.4-8.24,8.37-16.91,11.8-25.77-7.8-.47-15.97-1.21-24.28-2.2-11.85-1.4-24.23-3.25-36.78-5.49Z"/>
    <path class="cls-1" d="m256.7,222.42h-4.75c1.49.32,2.97.63,4.45.94.1-.31.2-.63.3-.94Z"/>
    <path class="cls-1" d="m317.77,93.38c-10.76-4.51-21.92-8.63-34.09-12.59-.02,4.98-.19,10.32-.51,16.32-.74,12.94-2.27,26.58-4.67,41.5h55.89c-.57-13.99-2.52-27.54-5.86-40.42-3.38-1.58-6.9-3.15-10.76-4.81Z"/>
    <path class="cls-1" d="m367.75,122.56c-4.07-3.88-8.83-7.48-15.43-11.67-6.37-3.98-13.38-7.78-21.4-11.59,2.99,12.42,4.71,25.6,5.17,39.31h39.81c.62-3.26-.71-6.45-2-8.61-1.44-2.41-3.39-4.78-6.15-7.44Z"/>
    <path class="cls-1" d="m168.94,50.64c13.37,1.6,27.04,3.93,41.77,7.11l.19-.31c.69-1.14,1.38-2.28,2.09-3.41,2.07-3.3,4.2-6.5,6.34-9.51-1.88-.76-3.45-1.42-4.93-2.07-6.74-3.06-11.75-5.79-16.25-8.85-1.73-1.19-3.26-2.37-4.67-3.6-9.06,5.38-17.94,12.26-26.39,20.45.29.03.58.06.87.09l.99.1Z"/>
    <path class="cls-1" d="m181.8,120.02c5.87-16.12,12.42-31.33,19.46-45.21,2.18-4.3,4.55-8.67,7.05-12.99-13.82-2.5-27.35-4.38-40.23-5.6h0c-1.78-.17-3.67-.34-6.14-.54-11.27,11.94-21.37,26.06-30,41.98h0c6.72,3.72,14.01,7.33,22.28,11.03,8.77,3.95,18.05,7.75,27.58,11.32Z"/>
    <path class="cls-1" d="m177.88,131.18c.66-1.93,1.32-3.86,1.98-5.78-9.75-3.33-19.13-6.88-27.88-10.54h0c-8.81-3.77-16.43-7.37-23.27-11-2.97,5.9-5.74,12.1-8.26,18.42,5.81.53,12.11,1.24,19.24,2.18,12.28,1.72,24.77,3.92,38.19,6.72Z"/>
    <path class="cls-1" d="m176.39,135.67c-13.21-2.37-25.53-4.21-37.66-5.63-7.04-.84-13.94-1.49-20.5-1.94-1.29,3.49-2.48,7-3.6,10.5h60.83c.31-.98.62-1.97.94-2.93Z"/>
    <path class="cls-1" d="m245.67,66.41c12.32,3.47,24.38,7.27,35.84,11.3-.03-1.4-.07-2.8-.12-4.19-.22-4.93-.6-9.68-1.13-14.12-10.08-.97-20.31-2.75-31.28-5.44h0c-9.46-2.34-17.94-4.95-25.88-7.96-2.72,3.91-5.43,8.17-8.08,12.68,9.97,2.24,20.28,4.83,30.65,7.72Z"/>
    <path class="cls-5" d="m385.81,138.61h-8.76c-.87-3.48-1.87-6.93-2.96-10.36-1.25-1.73-2.79-3.48-4.73-5.37-4.06-3.92-8.86-7.59-15.55-11.9-6.95-4.43-14.54-8.65-23.19-12.91l-.21-.86c-.29-1.17-.58-2.35-.9-3.51-3.71-13.44-8.83-25.66-15.22-36.33.98-.41,1.81-.85,2.53-1.34,1.17-.77,2.67-2.1,3.18-4.07.2-.75.24-1.54.11-2.43-.39-.31-.78-.61-1.17-.92h0c.28,1.06.3,2,.07,2.87-.48,1.78-1.88,3-2.97,3.7-.68.44-1.42.83-2.33,1.21-2.7-4.42-5.63-8.56-8.69-12.32-3.5-4.3-7.32-8.26-11.39-11.82-5.29-2.75-10.74-5.22-16.35-7.39,2.09,1.12,4.03,2.26,5.88,3.46,7.05,4.58,13.58,10.4,19.43,17.3,3.03,3.58,5.91,7.5,8.56,11.65-2.41.69-5.08,1.14-8.36,1.43-5.25.42-10.83.32-18.1-.36-.62-.06-1.24-.14-1.85-.21l-.2-.02c-.32-3.02-.64-5.51-1.02-7.83-1.42-8.61-3.45-15.53-6.2-21.16-1.19-2.41-2.54-4.56-4.03-6.42-3.14-1.08-6.33-2.06-9.55-2.96,5.3,1.97,8.84,7.02,10.94,11.11,2.71,5.29,4.76,11.85,6.26,20.08.39,2.13.73,4.38,1.04,6.88-9.63-1.24-19.67-3.35-30.7-6.45-8.5-2.41-16.64-5.2-24.19-8.3,1.29-1.77,2.47-3.32,3.61-4.74,5.22-6.5,10.11-11.29,14.97-14.65,2.87-1.97,5.66-3.35,8.28-4.1,2.48-.73,4.98-.9,7.29-.5-3.37-.88-6.74-1.66-10.13-2.32-2.11.81-4.24,1.9-6.38,3.28-5.27,3.42-10.59,8.35-16.24,15.05-1.58,1.89-3.24,3.99-5.05,6.44-2.17-.94-4.08-1.81-5.85-2.65-6.09-2.88-11.2-5.77-15.6-8.83-1.02-.72-1.99-1.44-2.9-2.17,4.09-2.24,8.24-4.18,12.34-5.78,8.38-3.28,16.84-5.29,25.15-5.98,3.26-.28,6.63-.33,10.02-.18-7.67-1.28-15.37-2-23.05-2.18-4.38.94-8.77,2.19-13.11,3.77-5.05,1.85-10.16,4.16-15.17,6.86-.03-.02-.05-.05-.07-.07h0c-1.12-1.23-1.94-2.35-2.49-3.46-.64-1.25-.86-2.49-.6-3.42.13-.51.42-1.02.85-1.5-1.42.24-2.83.51-4.25.79,0,.01,0,.02-.01.03-.29,1.1-.32,2.35-.1,3.53.18.96.51,1.89,1,2.87.56,1.1,1.25,2.12,2.16,3.21-9.84,5.73-19.32,13.02-28.17,21.65-.34.34-.68.69-1.02,1.04-.22.22-.43.45-.65.67-11.6-1.05-21.3-1.35-30.51-.96-5.67.28-10.36.76-14.63,1.52-4.1,3.29-8.03,6.77-11.77,10.42,2.11-1.21,4.76-2.23,8.1-3.11,5.18-1.33,11.08-2.14,18.57-2.55,7.78-.4,15.97-.35,25.02.16-10.61,11.58-20.02,24.79-27.98,39.27-.04.07-.07.14-.1.21-2.32-1.37-4.41-2.64-6.38-3.9-6.32-4.07-11.05-7.69-14.89-11.39-2.52-2.47-4.34-4.7-5.58-6.82-1.5-2.53-2.04-4.91-1.52-6.72.04-.16.09-.31.15-.46-2.22,2.34-4.38,4.74-6.46,7.21.45,1.32,1.05,2.63,1.85,3.99,2.1,3.52,4.74,6.25,6.8,8.24,5.46,5.2,11.47,9.24,16.09,12.17,2.04,1.28,4.21,2.56,6.64,3.93-3.39,6.67-6.53,13.67-9.34,20.82-6.78-.48-12.89-.71-18.73-.71-6.14.03-14.25.25-22.55,1.7-2.97.54-6.82,1.36-10.68,2.96-1.14,3.35-2.17,6.75-3.11,10.2.9-1.46,2.78-2.9,5.22-3.97,2.59-1.17,5.78-2.09,9.77-2.84,5.97-1.09,12.74-1.64,21.32-1.74.67,0,1.34,0,2.01,0,4.67,0,9.53.12,14.48.37-1.31,3.6-2.54,7.24-3.69,10.89H6.8v83.82h90.42c.63,11.51,2.18,22.74,4.66,33.52-7.97-3.99-14.94-7.91-21.29-11.98-6.32-4.08-11.03-7.69-14.82-11.37-2.48-2.44-4.3-4.66-5.56-6.81-.31-.53-.57-1.05-.8-1.57,1.71,6.03,3.76,11.98,6.17,17.83,3.26,2.66,6.93,5.27,11.44,8.14,7.79,4.87,16.62,9.53,27.01,14.25l.1.36c.05.19.1.38.16.58,5.57,19.25,14.46,36.41,25.69,49.63,2.76,3.26,5.72,6.29,8.8,9.09,6.36,3.47,12.98,6.52,19.83,9.13-2.32-1.26-4.54-2.61-6.62-4.04h0c-6.89-4.71-13.26-10.64-18.92-17.62-9.71-11.95-17.28-26.83-22.51-44.23.23.1.46.2.69.3.28.12.56.24.84.37,12.45,5.22,25.44,9.94,39.68,14.4.01.36.02.72.03,1.08.02.67.04,1.34.07,2.01.39,8.65,1.2,16.24,2.48,23.19,1.6,8.62,3.78,15.53,6.68,21.11,1.09,2.08,2.31,3.96,3.63,5.62,2.77.93,5.57,1.8,8.4,2.59-4.55-2.39-7.6-7.07-9.44-10.9-2.57-5.32-4.46-11.91-5.79-20.13-1.11-7.08-1.73-14.7-1.9-23.26,9.75,2.96,19.94,5.78,30.31,8.38,12.2,3.01,24.39,5.62,36.23,7.77l-.32.53c-.39.65-.78,1.29-1.18,1.93-4.5,7.2-8.82,13.24-13.2,18.49-5.38,6.43-10.41,11.13-15.36,14.37-2.93,1.91-5.76,3.21-8.42,3.88-1.61.43-3.22.61-4.78.56,2.79.67,5.59,1.26,8.39,1.78,2.06-.85,4.15-1.98,6.24-3.4,5.18-3.56,10.36-8.58,15.84-15.35,5.1-6.35,10.03-13.67,15.08-22.37,13.05,2.29,25.87,4.04,38.11,5.19,3.05.29,6.17.55,9.28.76-.07.07-.13.14-.2.21-.3.3-.59.61-.9.9-13.92,13.64-29.64,23.92-45.45,29.72-8.47,3.11-17.03,4.95-25.44,5.45-1.5.1-3.04.14-4.67.14,5.54.75,11.1,1.2,16.64,1.38,4.97-1.07,9.94-2.54,14.81-4.43h0c16-6.21,31.4-16.65,45.8-31.03.45-.45.88-.9,1.31-1.35.26-.27.51-.54.77-.81,9.72.58,18.53.65,26.93.22,7.86-.44,13.82-1.27,19.32-2.69,2.08-.55,3.93-1.17,5.61-1.86,3.51-3.12,6.86-6.38,10.07-9.78.63-3.38-.74-6.67-2.07-8.9-1.46-2.5-3.43-4.92-6.19-7.62-4.08-3.94-8.85-7.6-15.46-11.87-1.6-1.01-3.37-2.1-5.42-3.33,4.47-8.39,8.52-17.3,12.03-26.5,6.4.35,12.32.49,18.12.46,8.92-.1,15.71-.65,22.02-1.78,3.01-.57,6.94-1.43,10.66-3.1,1.66-.76,2.97-1.53,4.08-2.38.38-1.22.74-2.45,1.08-3.69-.49.73-1.11,1.42-1.84,2.05-1.22,1.06-2.7,1.95-4.65,2.83-2.9,1.28-6.14,2.2-10.5,2.99-6.2,1.09-12.93,1.61-21.84,1.68-5.28,0-10.7-.19-16.57-.57,1.26-3.37,2.43-6.75,3.54-10.13h103.81v-83.82h-41.77Zm-102.89-78.97c.66.06,1.32.12,1.99.17,6.83.5,12.82.5,18.33-.01,3.33-.32,6.05-.82,8.53-1.55,6.62,10.55,11.89,22.55,15.65,35.67.25.84.47,1.71.69,2.55l.11.42c-2.94-1.41-5.95-2.81-8.95-4.15-11.14-5.01-23.11-9.8-35.56-14.25-.03-6.61-.33-12.96-.9-18.86h.13Zm-1.65,37.34c-.65,13.28-2.1,27.26-4.32,41.63h-35.37c-4.79-1.21-9.65-2.5-14.65-3.89-13.88-3.9-27.49-8.27-40.47-13,.01-.03.02-.07.04-.1.04-.11.08-.22.12-.33,5.95-16.5,11.95-30.83,18.35-43.81,2.65-5.35,5.2-10.21,7.79-14.84,10.41,1.98,20.97,4.28,31.4,6.86,13.41,3.35,25.66,6.82,37.41,10.6.08,5.66-.02,11.34-.3,16.88Zm-98.45,35.23c.49-1.46,1-2.92,1.51-4.37l.3-.86c12.77,4.22,25.94,8.03,40.21,11.63h-14.99c-9.23-2.37-18.18-4.48-27.04-6.4Zm8.96,6.4h-11.02c.22-.68.42-1.35.64-2.03,3.43.64,6.89,1.32,10.37,2.03Zm45.21,83.82c6.22,1.29,12.41,2.49,18.52,3.59-1.04,3.09-2.05,5.99-3.08,8.85-11.66-4.42-24.02-8.59-36.84-12.44h21.4Zm14.95,0h4.75c-.1.31-.2.63-.3.94-1.48-.3-2.96-.62-4.45-.94Zm-28.85-176.41c7.95,3.01,16.42,5.62,25.88,7.96h0c10.97,2.68,21.2,4.46,31.28,5.44.53,4.43.91,9.18,1.13,14.12.05,1.39.09,2.79.12,4.19-11.46-4.03-23.52-7.83-35.84-11.3-10.37-2.89-20.68-5.49-30.65-7.72,2.65-4.51,5.36-8.77,8.08-12.68Zm-29.63-16.02c1.42,1.23,2.95,2.41,4.67,3.6,4.5,3.06,9.51,5.79,16.25,8.85,1.47.65,3.05,1.31,4.93,2.07-2.13,3.01-4.27,6.21-6.34,9.51-.71,1.13-1.4,2.26-2.09,3.41l-.19.31c-14.73-3.18-28.39-5.5-41.77-7.11l-.99-.1c-.29-.03-.58-.06-.87-.09,8.45-8.2,17.32-15.07,26.39-20.45Zm-61.52,67.67c8.63-15.92,18.73-30.05,30-41.98,2.46.2,4.36.36,6.14.54h0c12.88,1.22,26.41,3.1,40.23,5.6-2.5,4.32-4.87,8.69-7.05,12.99-7.04,13.88-13.59,29.09-19.46,45.21-9.54-3.57-18.82-7.38-27.58-11.32-8.27-3.7-15.56-7.31-22.28-11.03h0Zm-3.23,6.2c6.84,3.63,14.46,7.22,23.27,11h0c8.75,3.67,18.13,7.21,27.88,10.54-.67,1.92-1.33,3.85-1.98,5.78-13.42-2.8-25.91-5-38.19-6.72-7.13-.94-13.43-1.65-19.24-2.18,2.52-6.32,5.29-12.52,8.26-18.42Zm-10.48,24.25c6.56.45,13.46,1.1,20.5,1.94,12.13,1.42,24.46,3.26,37.66,5.63-.32.97-.62,1.96-.94,2.93h-60.83c1.12-3.5,2.32-7.01,3.6-10.5Zm33.69,133.53c-.23,4.88-.32,9.95-.28,15.08-12.97-4.56-25.52-9.56-37.31-14.87-2.19-.99-4.16-1.9-6.01-2.78-2.86-11.61-4.59-23.88-5.2-36.64h52.67c-1.97,13.46-3.28,26.61-3.88,39.21Zm72.27,35.34c-12.02-2.52-24.62-5.61-37.46-9.19-10.41-2.94-20.79-6.17-30.86-9.61.02-5.38.21-10.95.56-17.04.71-12.12,2.13-24.85,4.3-38.71h42.69c.18.04.35.08.53.13,17.3,4.32,32.96,8.93,47.85,14.1-5.87,16.19-12.39,31.4-19.37,45.22-2.52,5.02-5.29,10.1-8.23,15.1Zm49.71,7.44c-4.17-.34-7.99-.72-11.66-1.14-11.42-1.36-23.16-3.27-35.86-5.86,2.58-4.6,5.19-9.56,7.76-14.73,6.54-13.22,12.63-27.71,18.61-44.3.1-.28.2-.56.3-.84l.14-.39c8.75,3.07,16.63,6.09,24.08,9.21,11.42,4.9,20.52,9.36,28.6,14.02l-.19.37c-.18.34-.35.69-.54,1.03-8.77,15.98-19.28,30.33-31.24,42.64Zm37.76-40.57c6.47,4.11,11.35,7.81,15.36,11.64,2.75,2.67,4.69,5.03,6.11,7.43,1.36,2.27,2.79,5.71,1.89,9.14-.92,3.44-3.85,5.71-6.15,7.01-2.42,1.38-5.28,2.48-8.99,3.45-5.42,1.36-11.31,2.15-19.11,2.54-7.41.33-15.35.18-24.25-.46,11.34-12.06,21.49-26.27,30.17-42.25l.26-.51c.11-.22.23-.44.34-.66,1.62.95,3,1.77,4.36,2.64Zm-5.44-4.11c-8.16-4.79-17.18-9.39-27.57-14.05-7.8-3.51-15.93-6.88-24.84-10.29,1.14-3.2,2.17-6.19,3.15-9.12,12.56,2.25,24.93,4.1,36.78,5.49,8.31.99,16.48,1.73,24.28,2.2-3.42,8.86-7.39,17.52-11.8,25.77Zm12.38-27.29c-7.67-.54-15.78-1.38-25.51-2.67-11.33-1.58-22.88-3.58-35.29-6.12.13-.41.26-.82.39-1.23h63.96c-1.11,3.34-2.28,6.68-3.55,10.02Zm-40.09-93.83c2.39-14.92,3.93-28.56,4.67-41.5.32-6,.49-11.34.51-16.32,12.18,3.96,23.33,8.08,34.09,12.59,3.86,1.65,7.38,3.23,10.76,4.81,3.34,12.88,5.28,26.43,5.86,40.42h-55.89Zm97.39,0h-39.81c-.46-13.7-2.18-26.88-5.17-39.31,8.02,3.81,15.03,7.61,21.4,11.59,6.6,4.19,11.36,7.79,15.43,11.67,2.75,2.66,4.71,5.02,6.15,7.44,1.29,2.15,2.63,5.35,2,8.61Z"/>
    <path class="cls-6" d="m366.98,91.39c-23.2-40.1-60.51-68.67-105.07-80.44C217.36-.82,170.81,5.6,130.83,29.01c-23.89,13.99-43.69,33.04-58.28,55.67-9.82,15.23-17.29,32.07-22.05,50.09-.34,1.28-.66,2.56-.96,3.84h8.76s.02-.08.03-.11c.13-.52.25-1.03.39-1.55.09-.35.19-.69.29-1.03.93-3.45,1.97-6.85,3.11-10.2,6.67-19.62,16.82-37.56,29.91-53.11,2.08-2.47,4.23-4.86,6.46-7.21,1.51-1.59,3.04-3.15,4.61-4.68,3.74-3.64,7.67-7.12,11.77-10.42,6.35-5.1,13.11-9.76,20.26-13.95,16.29-9.54,33.73-16.1,51.68-19.62,1.41-.28,2.83-.55,4.25-.79,8.85-1.49,17.82-2.24,26.82-2.24,1.26,0,2.52.03,3.78.06,7.68.18,15.38.9,23.05,2.18,1.5.25,3.01.52,4.51.81,3.39.66,6.76,1.44,10.13,2.32.14.04.27.07.41.1h0c.7.18,1.39.39,2.09.58,3.22.9,6.41,1.88,9.55,2.96,1.98.68,3.93,1.41,5.88,2.16,5.61,2.17,11.06,4.64,16.35,7.39,0,0-.02-.02-.03-.03.47.25.94.5,1.4.75.56.3,1.11.59,1.66.89.25.14.5.28.75.42,7.56,4.19,14.75,8.98,21.53,14.3.39.31.78.61,1.17.92,0,0,0,0,0,0,.08.06.15.13.23.19,1.42,1.14,2.83,2.31,4.22,3.5.27.23.53.46.79.69.95.82,1.88,1.67,2.81,2.51,12.27,11.23,22.9,24.4,31.49,39.25,6.04,10.44,10.86,21.37,14.46,32.59,1.1,3.43,2.09,6.88,2.96,10.36h8.76c-3.88-16.37-10.17-32.25-18.83-47.21Z"/>
  </g>
  <g>
    <path class="cls-4" d="m364.44,191.99h0c0-1.15.92-2.11,2.09-2.11s2.09.95,2.09,2.09h0c0,1.15-.92,2.11-2.09,2.11s-2.09-.95-2.09-2.09Zm3.93-.01h0c0-1.03-.79-1.87-1.85-1.87s-1.85.85-1.85,1.87h0c0,1.03.79,1.87,1.85,1.87s1.85-.85,1.85-1.87Zm-2.66-1.1h.96c.47,0,.82.23.82.67,0,.35-.2.56-.49.65l.56.8h-.49l-.5-.73h-.44v.73h-.41v-2.12Zm.92,1.06c.28,0,.43-.14.43-.35,0-.23-.16-.35-.43-.35h-.52v.7h.52Z"/>
    <g>
      <path class="cls-3" d="m64.85,189.63h2.35l-.07,20.62h-2.29v-20.62Z"/>
      <path class="cls-3" d="m77.77,189.63h2.21l13,16.48v-16.48h2.27v20.62h-1.82l-13.34-16.88-.06,16.88h-2.23l-.02-20.62Z"/>
      <path class="cls-3" d="m111.11,191.8h-6.91v-2.16h16.22v2.14h-6.93v18.48h-2.36l-.02-18.47Z"/>
      <path class="cls-3" d="m129.36,189.56h14.92v2.12h-12.56l-.02,7.02,11.27.03-.02,2.11-11.25.02.02,7.2,12.7.05v2.08s-15.06,0-15.06,0v-20.62Z"/>
      <path class="cls-3" d="m153.69,189.63h8.25c3.11,0,5.2.67,6.57,2.11.62.65,1.52,2.35,1.52,3.83h0c0,3.45-1.97,5.59-5.57,6.26l6.33,8.43h-2.88s-6-8-6-8h-5.86l-.03,8h-2.32v-20.62Zm8.1,10.55c4.43.01,5.87-2.02,5.92-4.52h0c-.3-2.04-1.22-3.91-5.82-3.91l-5.88.04v8.35s5.78.04,5.78.04Z"/>
      <path class="cls-3" d="m179.59,189.63h2.22l12.99,16.55v-16.55s2.27,0,2.27,0v20.62s-1.87,0-1.87,0l-13.29-16.88-.02,16.88h-2.28l-.03-20.62Z"/>
      <path class="cls-3" d="m215.13,189.48h2.18l9.4,20.77h-2.5l-2.38-5.42-11.26-.02-2.45,5.44h-2.4l9.41-20.77Zm5.74,13.2l-4.67-10.48-4.72,10.48h9.39Z"/>
      <path class="cls-3" d="m238.15,191.77l-6.91.02v-2.16h16.22v2.16h-6.93l-.02,18.46h-2.34l-.02-18.48Z"/>
      <path class="cls-3" d="m256.62,189.63h2.33v20.62h-2.33v-20.62Z"/>
      <path class="cls-3" d="m268.67,200v-.06c0-5.63,4.29-10.66,10.36-10.67,6.65,0,10.67,4.97,10.67,10.59h0c.23,6.16-5.51,12.22-13.2,10.46-4.23-.97-7.73-5.05-7.82-10.33Zm18.63-.04v-.06c0-5.1-3.83-8.53-8.11-8.49-5.11.05-8.09,4.01-8.1,8.47v.06c.02,4.88,3.26,7.53,5.89,8.25,5.65,1.56,10.53-3.01,10.32-8.23Z"/>
      <path class="cls-3" d="m299.21,189.63h2.19l12.99,16.53v-16.53h2.3v20.62h-1.88l-13.31-16.89-.02,16.89h-2.27v-20.62Z"/>
      <path class="cls-3" d="m334.75,189.48h2.18l9.41,20.77h-2.51l-2.45-5.45-11.19.02-2.47,5.44h-2.37l9.41-20.77Zm5.73,13.18l-4.7-10.47-4.69,10.5,9.39-.03Z"/>
      <path class="cls-3" d="m354.98,189.63h2.33v18.48s11.63.02,11.63.02l-.02,2.12h-13.95v-20.62Z"/>
    </g>
    <g>
      <path class="cls-7" d="m29.85,156.41h-10.04v-6.38h27.35v6.38h-10.04v25.08h-7.26v-25.08Z"/>
      <path class="cls-7" d="m49.84,165.85v-.09c0-8.94,7.4-16.27,17.59-16.27s17.49,7.23,17.49,16.18v.09c0,8.94-7.4,16.27-17.59,16.27s-17.49-7.24-17.49-16.18Zm27.49,0v-.09c0-5.39-4.15-9.89-10-9.89s-9.9,4.4-9.9,9.8v.09c0,5.39,4.15,9.89,10,9.89s9.9-4.4,9.9-9.8Z"/>
      <path class="cls-7" d="m100.57,149.81h6.7l14.15,31.68h-7.59l-3.02-7.06h-13.96l-3.02,7.06h-7.4l14.14-31.68Zm7.64,18.51l-4.38-10.2-4.38,10.2h8.77Z"/>
      <path class="cls-7" d="m123.77,176.9l4.29-4.9c2.97,2.34,6.08,3.82,9.85,3.82,2.97,0,4.76-1.12,4.76-2.97v-.09c0-1.75-1.13-2.65-6.65-4-6.65-1.62-10.94-3.37-10.94-9.62v-.09c0-5.71,4.81-9.48,11.55-9.48,4.81,0,8.91,1.44,12.26,4l-3.77,5.21c-2.92-1.93-5.8-3.1-8.58-3.1s-4.24,1.21-4.24,2.74v.09c0,2.07,1.41,2.74,7.12,4.13,6.7,1.66,10.47,3.95,10.47,9.44v.09c0,6.25-5,9.75-12.12,9.75-5,0-10.04-1.66-14-5.03Z"/>
      <path class="cls-7" d="m163.19,156.41h-10.04v-6.38h27.35v6.38h-10.04v25.08h-7.26v-25.08Z"/>
      <path class="cls-7" d="m186.05,150.03h7.83l8.68,13.3,8.68-13.3h7.83v31.46h-7.21v-20.54l-9.29,13.44h-.19l-9.19-13.3v20.4h-7.12v-31.46Z"/>
      <path class="cls-7" d="m238.3,149.81h6.7l14.14,31.68h-7.59l-3.02-7.06h-13.96l-3.02,7.06h-7.4l14.14-31.68Zm7.64,18.51l-4.38-10.2-4.39,10.2h8.77Z"/>
      <path class="cls-7" d="m261.49,176.9l4.29-4.9c2.97,2.34,6.08,3.82,9.85,3.82,2.97,0,4.76-1.12,4.76-2.97v-.09c0-1.75-1.13-2.65-6.65-4-6.65-1.62-10.94-3.37-10.94-9.62v-.09c0-5.71,4.81-9.48,11.55-9.48,4.81,0,8.91,1.44,12.26,4l-3.77,5.21c-2.92-1.93-5.8-3.1-8.58-3.1s-4.24,1.21-4.24,2.74v.09c0,2.07,1.41,2.74,7.12,4.13,6.7,1.66,10.47,3.95,10.47,9.44v.09c0,6.25-5,9.75-12.12,9.75-5,0-10.04-1.66-14-5.03Z"/>
      <path class="cls-7" d="m300.91,156.41h-10.04v-6.38h27.35v6.38h-10.04v25.08h-7.26v-25.08Z"/>
      <path class="cls-7" d="m323.78,150.03h24.89v6.16h-17.68v6.38h15.56v6.16h-15.56v6.61h17.92v6.16h-25.13v-31.46Z"/>
      <path class="cls-7" d="m355.37,150.03h15.09c4.2,0,7.45,1.12,9.62,3.19,1.84,1.75,2.83,4.22,2.83,7.19v.09c0,5.08-2.87,8.27-7.07,9.75l8.06,11.23h-8.49l-7.07-10.07h-5.71v10.07h-7.26v-31.46Zm14.62,15.28c3.54,0,5.56-1.8,5.56-4.45v-.09c0-2.97-2.17-4.49-5.71-4.49h-7.21v9.03h7.36Z"/>
      <path class="cls-7" d="m387.19,176.9l4.29-4.9c2.97,2.34,6.08,3.82,9.85,3.82,2.97,0,4.76-1.12,4.76-2.97v-.09c0-1.75-1.13-2.65-6.65-4-6.65-1.62-10.94-3.37-10.94-9.62v-.09c0-5.71,4.81-9.48,11.55-9.48,4.81,0,8.91,1.44,12.26,4l-3.77,5.21c-2.92-1.93-5.8-3.1-8.58-3.1s-4.24,1.21-4.24,2.74v.09c0,2.07,1.41,2.74,7.12,4.13,6.7,1.66,10.47,3.95,10.47,9.44v.09c0,6.25-5,9.75-12.12,9.75-5,0-10.04-1.66-14-5.03Z"/>
    </g>
  </g>
</svg>